<svg width="557" height="475" viewBox="0 0 557 475" fill="none" xmlns="http://www.w3.org/2000/svg">
<path d="M228.757 149.06C241.587 149.857 254.207 150.121 266.684 151.603C278.767 153.038 289.556 157.971 297.307 167.946C303.068 175.36 304.54 184.277 305.24 193.32C305.781 200.322 305.585 207.277 303.486 214.122C301.838 219.495 298.404 223.233 293.524 225.362C288.996 227.338 284.127 228.53 279.4 230.038C278.064 230.464 276.696 230.787 274.848 231.292C279.733 232.735 284.054 233.983 288.359 235.288C301.706 239.334 308.385 248.785 309.318 262.347C310.193 275.054 310.44 287.793 308.753 300.492C306.893 314.491 297.561 323.971 283.902 326.278C270.878 328.477 257.763 328.843 244.634 328.91C218.511 329.043 192.387 328.91 166.264 329C163.739 329.009 162.998 328.281 163.001 325.778C163.06 267.957 163.069 210.135 163 152.314C162.997 149.594 163.902 148.989 166.442 149C187.123 149.094 207.804 149.057 228.757 149.06ZM242.523 249.697C237.228 247.969 231.798 247.481 225.983 247.646C225.983 248.885 225.983 249.866 225.982 250.847C225.979 265.416 225.974 279.984 225.973 294.553C225.973 298.201 225.98 298.189 229.754 297.946C231.292 297.846 232.838 297.855 234.375 297.741C242.575 297.129 246.515 293.797 246.696 286.608C246.933 277.238 246.88 267.853 246.664 258.481C246.589 255.26 245.918 251.94 242.523 249.697ZM227.025 179.77C226.677 180.39 226.029 181.009 226.026 181.631C225.966 193.636 225.995 205.641 225.963 217.646C225.959 219.078 226.52 219.596 227.904 219.514C231.338 219.312 234.801 219.384 238.204 218.952C243.345 218.3 245.387 216.587 245.888 211.374C246.545 204.527 246.853 197.594 246.592 190.726C246.358 184.556 242.8 181.206 236.733 180.374C233.696 179.957 230.604 179.951 227.025 179.77Z" fill="#FC1A01"/>
<path d="M53.6495 146.097C63.93 146.149 74.243 145.705 84.4829 146.374C98.6721 147.301 112.312 150.654 124.655 158.203C131.771 162.556 135.782 168.991 136.793 176.988C137.815 185.073 137.965 193.265 138.545 201.407C138.668 203.123 137.925 203.615 136.316 203.611C118.269 203.569 100.221 203.551 82.1733 203.583C80.2228 203.586 79.7224 202.778 79.6936 200.955C79.5978 194.881 79.4658 188.802 79.1009 182.74C78.8896 179.229 76.9336 177.382 73.482 176.691C65.1603 175.024 59.3726 179.467 59.359 187.983C59.3526 192.012 59.7398 196.199 60.8938 200.03C62.2753 204.617 66.3824 207.216 70.4749 209.277C78.1108 213.121 85.9139 216.633 93.6017 220.377C105.047 225.95 116.342 231.752 126.74 239.213C135.482 245.486 140.28 254.007 142.244 264.264C144.464 275.86 144.584 287.502 142.576 299.189C140.753 309.804 134.799 317.103 125.415 322.01C113.938 328.01 101.607 330.981 88.8413 332.222C72.9665 333.765 57.1517 333.119 41.6117 329.332C32.644 327.148 24.1424 323.711 16.5202 318.312C9.16954 313.106 5.40799 305.783 3.55628 297.256C1.39858 287.319 1.51395 277.23 1.42487 267.141C1.39702 263.987 3.47591 264.415 5.25425 264.415C18.5605 264.41 31.8668 264.487 45.1731 264.528C50.086 264.543 54.999 264.531 60.3551 264.531C60.3551 265.729 60.353 266.687 60.3554 267.645C60.3749 275.284 60.3631 282.923 60.4233 290.561C60.5007 300.4 65.7952 303.704 75.4342 301.554C79.9828 300.539 82.429 297.278 83.0758 292.94C84.0472 286.423 83.8062 279.897 81.8457 273.523C80.5677 269.369 77.7832 266.462 74.0299 264.48C61.252 257.73 48.3716 251.17 35.6732 244.276C28.4974 240.38 21.1591 236.552 14.6866 231.652C5.86697 224.975 1.456 215.3 0.460262 204.394C-0.382717 195.161 -0.191432 185.917 2.07944 176.77C4.24995 168.026 9.35477 161.561 16.8316 157.008C26.6165 151.05 37.4031 147.905 49.2068 147.079C50.9449 146.855 52.2972 146.476 53.6495 146.097Z" fill="#FC1A02"/>
<path d="M257.348 415.448C296.485 388.189 334.2 359.414 369.924 328.086C403.417 298.714 435.016 267.495 462.519 232.346C482.529 206.774 499.977 179.651 511.811 149.235C519.373 129.8 524.063 109.732 524.284 88.7915C524.44 73.9719 522.144 59.4973 517.404 45.4314C517.296 45.11 517.19 44.7876 517.084 44.4656C517.295 44.3104 517.505 44.1552 517.716 44C521.891 48.9885 526.311 53.7937 530.195 58.9985C543.799 77.2277 552.41 97.6266 555.643 120.151C559.262 145.377 555.474 169.746 546.283 193.358C537.678 215.465 525.172 235.29 510.425 253.77C490.181 279.136 466.601 301.105 441.301 321.301C401.403 353.151 358.209 379.963 313.506 404.442C266.341 430.269 217.705 453.051 168.284 474.195C167.62 474.479 166.953 474.774 166.262 474.969C165.939 475.06 165.552 474.925 165 474.875C196.61 456.235 227.24 436.425 257.348 415.448Z" fill="#111111"/>
<path d="M345.766 1.06869C346.352 1.06463 346.938 1.06056 347.806 1.3066C348.483 1.72446 348.868 2.00649 349.275 2.04237C353.662 2.42963 358.047 2.86213 362.443 3.10915C365.628 3.28809 368.827 3.20709 372.019 3.24201C372.262 3.24575 372.505 3.24947 372.983 3.48989C375.839 5.04562 378.55 5.4283 381.386 4.51363C381.784 4.56248 382.183 4.61132 382.814 4.93182C384.29 5.58241 385.513 6.17183 386.781 6.29343C388.953 6.50176 391.153 6.4175 393.342 6.45611C393.586 6.47114 393.831 6.48616 394.31 6.74768C396.175 7.39547 397.817 7.76194 399.438 8.20426C405.668 9.90427 411.887 11.6414 418.124 13.3159C418.555 13.4317 419.094 13.1475 419.583 13.0494C419.828 13.0788 420.074 13.1081 420.537 13.3946C422.015 15.99 424.254 14.9559 426.12 15.2081C426.12 15.2081 426.143 15.1837 426.178 15.3999C431.006 17.9405 435.414 21.1915 440.95 21.7243C440.95 21.7243 440.921 21.7429 440.947 21.9321C442.856 23.0495 444.739 23.9778 446.621 24.9061C447.011 25.0761 447.4 25.2462 447.928 25.7113C448.724 26.7249 449.293 27.5559 450.052 28.1416C452.651 30.1483 455.282 32.119 457.968 34.0062C460.055 35.4719 462.243 36.7924 464.387 38.1774C464.387 38.1774 464.43 38.1528 464.426 38.3681C464.834 38.9423 465.246 39.3012 465.659 39.6601C465.659 39.6601 465.538 39.7765 465.571 39.9199C466.496 41.5146 467.106 43.2868 468.329 44.3591C472.563 48.0691 474.689 53.0211 477.023 57.9038C477.431 58.7572 478.438 59.3248 479.168 60.0244C479.324 60.2919 479.479 60.5595 479.5 61.1327C479.406 62.2336 479.224 63.1248 479.519 63.8096C483.169 72.2577 484.333 81.2844 483.921 90.2272C483.513 99.0819 481.437 107.859 480.104 116.672C479.765 118.914 479.469 121.163 479.154 123.408C479.124 123.651 479.094 123.894 478.782 124.317C478.004 125.077 477.297 125.577 477.049 126.247C475.431 130.624 473.841 135.015 472.39 139.45C471.627 141.782 471.164 144.213 470.565 146.599C470.565 146.599 470.585 146.771 470.364 146.922C469.587 147.632 468.82 148.094 468.511 148.766C466.42 153.314 464.404 157.897 462.42 162.493C462.077 163.287 462.004 164.197 461.807 165.053C461.807 165.053 461.825 165 461.717 165.033C461.556 165.112 461.452 165.187 461.458 165.197C461.523 165.309 461.606 165.411 461.684 165.515C461.61 165.758 461.537 166.001 461.183 166.423C460.435 166.986 459.801 167.277 459.526 167.768C457.372 171.622 455.27 175.505 453.206 179.408C452.976 179.843 453.089 180.458 453.043 180.99C452.894 181.407 452.745 181.825 452.27 182.367C451.372 183.58 450.8 184.669 450.228 185.758C450.092 186.036 449.955 186.314 449.533 186.742C448.482 188.332 447.716 189.774 446.949 191.215C446.949 191.215 446.938 191.204 446.75 191.227C445.773 192.688 444.984 194.128 444.195 195.568C444.195 195.568 444.204 195.577 444 195.595C441.79 196.186 441.271 197.61 441.569 199.502C441.569 199.502 441.511 199.393 441.341 199.434C439.848 201.199 438.415 202.852 437.241 204.672C436.454 205.89 436.036 207.346 435.453 208.695C435.453 208.695 435.455 208.697 435.256 208.716C432.8 209.425 432.684 211.431 432.277 213.258C432.277 213.258 432.23 213.453 431.982 213.552C431.007 214.802 430.28 215.951 429.553 217.101C429.553 217.101 429.506 217.288 429.256 217.382C428.232 218.725 427.458 219.974 426.684 221.223C426.611 221.387 426.538 221.551 426.148 221.787C425.132 222.406 424.308 222.851 423.753 223.52C421.058 226.765 418.289 229.967 415.847 233.398C414.598 235.152 413.981 237.354 413.079 239.354C413.079 239.354 413.054 239.302 412.872 239.329C411.24 240.29 409.297 240.874 409.907 243.272C409.907 243.272 409.887 243.269 409.736 243.284C409.504 243.469 409.423 243.64 409.343 243.811C409.343 243.811 409.356 243.713 409.17 243.784C406.842 246.416 404.646 248.933 402.584 251.556C401.729 252.644 401.162 253.957 400.464 255.168C400.464 255.168 400.461 255.161 400.259 255.18C399.508 256.001 398.96 256.804 398.411 257.606C398.411 257.606 398.39 257.77 398.139 257.85C397.106 259.014 396.325 260.097 395.544 261.181C395.544 261.181 395.54 261.174 395.34 261.172C394.01 262.643 392.879 264.117 391.749 265.59C391.749 265.59 391.72 265.545 391.541 265.569C390.525 266.093 389.473 266.413 388.888 267.12C385.216 271.555 381.628 276.06 378.062 280.581C377.268 281.586 376.67 282.744 375.982 283.832C375.982 283.832 375.953 284.001 375.708 284.083C374.721 285.103 373.98 286.043 373.239 286.982C373.239 286.982 373.126 286.865 372.982 286.899C371.143 288.598 369.372 290.195 367.782 291.953C366.896 292.932 366.31 294.181 365.589 295.308C365.589 295.308 365.564 295.476 365.311 295.546C361.691 298.211 358.698 301.139 356.749 304.992C352.993 309.067 349.336 313.238 345.464 317.199C335.609 327.278 325.665 337.27 315.737 347.276C314.764 348.256 313.649 349.095 312.6 350C312.4 349.815 312.2 349.63 312 349.445C312.596 348.537 313.166 347.61 313.79 346.722C325.385 330.207 337.163 313.817 348.537 297.152C361.367 278.356 372.878 258.74 383.412 238.568C397.171 212.219 408.863 185.039 415.898 156.038C416.56 153.307 417.083 150.542 417.922 147.559C418.131 147.011 418.089 146.697 418.047 146.382C418.091 145.968 418.136 145.554 418.439 144.89C419.177 143.436 419.906 142.269 420.093 141.02C420.719 136.842 421.372 132.645 421.59 128.434C421.789 124.595 421.434 120.727 421.324 116.872C421.308 115.206 421.293 113.539 421.445 111.451C421.661 106.988 421.844 102.941 421.687 98.9077C421.635 97.5822 420.701 96.2912 420.171 94.9844C420.171 94.9844 420.141 94.9824 420.159 94.8502C420.116 94.488 420.055 94.2581 419.993 94.0282C419.907 93.756 419.821 93.4837 419.865 92.8291C420.152 90.226 420.542 87.9516 418.556 86.2265C418.556 86.2265 418.514 86.2166 418.527 86.0752C418.457 85.7072 418.374 85.4805 418.291 85.2538C418.21 84.9908 418.13 84.7278 418.179 84.1106C417.591 81.4927 416.875 79.2289 416.158 76.9651C416.158 76.9651 416.09 76.8353 416.172 76.5176C415.857 70.9589 413.127 66.5977 410.865 62.0677C410.721 61.7781 410.065 61.7438 409.646 61.5906C409.528 61.3725 409.409 61.1543 409.353 60.6899C409.308 60.3304 409.199 60.2173 409.091 60.1041C409.091 60.1041 409.093 60.0415 409.13 59.8628C408.453 58.7012 407.74 57.7183 407.026 56.7353C407.026 56.7353 406.928 56.6047 406.901 56.3168C406.236 55.1637 405.596 54.2983 404.957 53.433C404.957 53.433 404.818 53.2635 404.81 52.942C403.912 50.2833 403.503 47.5772 400.428 46.9132C400.428 46.9132 400.459 46.892 400.459 46.7048C400.218 45.9513 400.112 45.2577 399.716 44.8385C395.43 40.3049 391.16 35.754 386.734 31.3596C385.773 30.4051 384.213 30.0535 382.928 29.4242C382.928 29.4242 382.962 29.4003 382.942 29.2242C382.173 28.3158 381.464 27.5355 380.666 26.8607C378.858 25.3312 377.101 23.7101 375.143 22.3958C373.237 21.1169 371.153 20.0709 369.06 19.1112C366.79 18.0701 364.42 17.2468 362.094 16.3285C362.094 16.3285 361.865 16.2979 361.732 16.0593C360.762 15.0737 360.031 14.1174 359.063 13.6225C356.891 12.5112 354.636 11.5337 352.342 10.7054C351.546 10.4184 350.534 10.733 349.621 10.7729C349.375 10.7206 349.13 10.6684 348.694 10.3346C346.056 9.25517 343.609 8.45728 341.162 7.65939C340.813 7.61351 340.464 7.56762 339.915 7.27308C337.711 5.06547 335.267 4.88965 332.681 5.28703C332.407 5.25268 332.133 5.21833 331.565 4.96625C329.092 3.88377 326.914 3.01905 324.492 2.05781C326.468 0.399646 328.497 1.18057 330.484 1.20396C335.577 1.26392 340.672 1.12693 345.766 1.06869Z" fill="#355CA7"/>
<path d="M53.3394 145.833C51.8672 146.359 50.5171 146.739 49 147C56.2193 139.867 63.5447 132.787 71.0031 125.851C95.9654 102.636 122.125 80.9189 150.919 62.5724C172.913 48.5588 195.937 36.7103 221.292 29.9468C236.873 25.7906 252.655 23.936 268.775 25.6173C291.361 27.973 310.823 37.1924 327.279 52.6891C347.169 71.4203 359.773 94.6312 367.897 120.488C367.975 120.737 367.945 121.019 368 121.752C366.921 120.834 366.066 120.168 365.28 119.427C347.254 102.422 325.733 92.269 301.729 87.1355C281.286 82.7634 260.614 82.2557 239.847 84.0723C201.763 87.4037 165.342 97.5868 129.701 110.961C103.499 120.794 78.095 132.393 53.3394 145.833Z" fill="#111111"/>
<path d="M479 123C479.204 120.907 479.525 118.657 479.895 116.414C481.347 107.595 483.608 98.8125 484.053 89.9524C484.502 81.0042 483.234 71.972 479.258 63.5186C478.936 62.8334 479.135 61.9417 479.234 61C482.763 67.4401 484.196 74.4914 484.735 81.6572C485.792 95.6969 483.647 109.419 479 123Z" fill="#395286"/>
<path d="M346 0.970892C341.175 1.08607 336.118 1.22924 331.062 1.16658C329.089 1.14212 327.076 0.325912 325.115 2.05901C327.518 3.06369 329.681 3.96749 331.951 5C325.706 3.74182 319.353 2.35494 313 0.968059C313.012 0.645373 313.023 0.322686 313.035 0C323.946 0.30553 334.857 0.611068 346 0.970892Z" fill="#395286"/>
<path d="M479 60C478.308 59.5003 477.341 58.9317 476.949 58.0765C474.706 53.1843 472.662 48.2226 468.593 44.5054C467.417 43.431 466.831 41.6553 466 40C471.46 44.326 474.666 50.5329 477.79 56.7954C478.268 57.7543 478.594 58.7956 479 60Z" fill="#395286"/>
<path d="M376 283C376.536 281.999 377.158 280.851 377.981 279.855C381.686 275.377 385.411 270.913 389.224 266.519C389.832 265.819 390.925 265.501 392 265C388.775 269.003 385.387 273.048 381.893 277.008C380.085 279.058 378.089 280.957 376 283Z" fill="#395286"/>
<path d="M421.639 117C421.793 120.537 422.135 124.322 421.943 128.078C421.733 132.199 421.103 136.305 420.5 140.394C420.32 141.616 419.617 142.758 419 144C419.444 139.258 420.116 134.46 420.616 129.645C421.043 125.519 421.273 121.372 421.639 117Z" fill="#395286"/>
<path d="M383 30C384.276 30.4491 385.883 30.7982 386.873 31.7461C391.432 36.11 395.832 40.6293 400.246 45.1315C400.654 45.5478 400.763 46.2365 401 47C397.302 43.5069 393.67 39.7591 389.906 36.1387C387.73 34.045 385.341 32.1566 383 30Z" fill="#395286"/>
<path d="M413 239C413.748 237.122 414.375 234.973 415.645 233.262C418.129 229.915 420.945 226.792 423.685 223.625C424.25 222.973 425.088 222.539 426 222C421.856 227.639 417.513 233.283 413 239Z" fill="#395286"/>
<path d="M420 12.5976C419.642 12.8209 419.103 13.0819 418.671 12.9755C412.426 11.4374 406.199 9.84172 399.961 8.28015C398.338 7.87385 396.694 7.53722 395 7C403.249 8.70907 411.559 10.5867 420 12.5976Z" fill="#395286"/>
<path d="M363 16C365.143 16.7766 367.429 17.6156 369.619 18.6766C371.637 19.6545 373.648 20.7205 375.487 22.0238C377.376 23.3632 379.071 25.0152 380.815 26.5739C381.585 27.2615 382.269 28.0567 383 29C381.282 27.9899 379.587 26.7285 377.824 25.5861C372.932 22.4173 368.011 19.2981 363 16Z" fill="#395286"/>
<path d="M471 146C471.45 143.74 471.914 141.308 472.679 138.975C474.133 134.538 475.727 130.145 477.349 125.766C477.597 125.096 478.306 124.596 479 124C476.516 131.28 473.833 138.576 471 146Z" fill="#395286"/>
<path d="M464 38C461.952 36.8053 459.801 35.5051 457.75 34.0619C455.109 32.2035 452.524 30.263 449.969 28.287C449.223 27.7102 448.664 26.892 448 26C454.027 28.8541 459.2 33.0545 464 38Z" fill="#395286"/>
<path d="M372 2.95116C368.997 2.98453 365.769 3.07184 362.555 2.87896C358.12 2.6127 353.694 2.14651 349.268 1.72907C348.858 1.6904 348.469 1.3864 348 1C353.719 1.21003 359.512 1.59261 365.298 2.05828C367.466 2.23277 369.621 2.60052 372 2.95116Z" fill="#395286"/>
<path d="M462 165C462.035 164.236 462.105 163.324 462.433 162.528C464.332 157.921 466.262 153.328 468.264 148.77C468.559 148.096 469.294 147.634 470 147C467.501 152.92 464.827 158.913 462 165Z" fill="#395286"/>
<path d="M410 62.0064C410.405 61.9824 411.003 62.0151 411.135 62.2912C413.196 66.6086 415.684 70.7653 416 76C415.089 74.1266 414.249 72.0024 413.354 69.9036C412.252 67.3168 411.104 64.7512 410 62.0064Z" fill="#395286"/>
<path d="M441 22C435.445 21.5709 430.936 17.872 426 15C430.942 17.1227 435.917 19.4727 441 22Z" fill="#395286"/>
<path d="M453.122 181C453.017 180.564 452.904 179.918 453.134 179.462C455.2 175.368 457.304 171.294 459.459 167.251C459.734 166.736 460.369 166.432 461 166C458.533 170.94 455.902 175.909 453.122 181Z" fill="#395286"/>
<path d="M350 11.299C350.794 11.1324 351.816 10.8421 352.619 11.1069C354.938 11.8709 357.215 12.7726 359.41 13.7978C360.387 14.2543 361.125 15.1365 362 16C358.062 14.5927 354.095 13.0108 350 11.299Z" fill="#395286"/>
<path d="M401 255C401.498 253.791 402.029 252.391 402.829 251.232C404.759 248.436 406.815 245.753 409 243C406.505 246.957 403.83 250.938 401 255Z" fill="#395286"/>
<path d="M420 95C420.694 96.0639 421.861 97.3571 421.925 98.6847C422.122 102.725 421.894 106.778 421.655 111C420.976 105.864 420.472 100.555 420 95Z" fill="#395286"/>
<path d="M357 305C358.911 300.923 362.145 297.785 366 295C363.209 298.314 360.202 301.63 357 305Z" fill="#395286"/>
<path d="M366 295C366.525 293.978 367.089 292.771 367.941 291.826C369.472 290.127 371.176 288.584 373 287C370.851 289.66 368.51 292.296 366 295Z" fill="#395286"/>
<path d="M436 208C436.434 206.747 436.87 205.312 437.69 204.111C438.914 202.317 440.409 200.688 442 199C440.199 201.982 438.186 204.952 436 208Z" fill="#395286"/>
<path d="M393 5.93244C391.008 5.99615 388.846 6.05509 386.711 5.90936C385.465 5.82429 384.263 5.41196 383 5C386.253 5.18267 389.547 5.5122 393 5.93244Z" fill="#395286"/>
<path d="M381 4.60705C378.357 5.3113 375.664 5.04497 373 4C375.568 4.09513 378.197 4.31724 381 4.60705Z" fill="#395286"/>
<path d="M401 47C403.82 47.4958 404.199 50.3276 405 53C403.659 51.2174 402.341 49.2082 401 47Z" fill="#395286"/>
<path d="M333 5.24311C335.463 4.73055 337.938 4.90216 340 7C337.741 6.57986 335.448 5.97384 333 5.24311Z" fill="#395286"/>
<path d="M342 8C344.229 8.54029 346.598 9.19871 349 10C346.736 9.46795 344.437 8.79303 342 8Z" fill="#395286"/>
<path d="M447 25C445.069 24.1912 443.042 23.2033 441 22C442.958 22.7967 444.931 23.8088 447 25Z" fill="#395286"/>
<path d="M419 86C420.283 87.4595 420.033 89.6744 419.85 92C419.508 90.1822 419.248 88.2014 419 86Z" fill="#395286"/>
<path d="M416 77C416.706 79.1245 417.419 81.4857 418 84C417.248 81.8476 416.628 79.5422 416 77Z" fill="#395286"/>
<path d="M392 265C393.125 263.711 394.444 262.354 396 261C394.889 262.313 393.542 263.622 392 265Z" fill="#395286"/>
<path d="M410.18 243C409.393 240.572 411.344 239.969 413 239C412.252 240.315 411.303 241.633 410.18 243Z" fill="#395286"/>
<path d="M433 213C433.17 211.042 433.252 208.795 435 208C434.467 209.623 433.794 211.267 433 213Z" fill="#395286"/>
<path d="M426 14.8769C424.366 14.7277 422.243 15.936 421 13C422.59 13.4412 424.227 14.0863 426 14.8769Z" fill="#395286"/>
<path d="M442.13 199C441.744 197.099 442.174 195.619 444 195C443.533 196.296 442.902 197.615 442.13 199Z" fill="#395286"/>
<path d="M447 191C447.783 189.733 448.774 188.381 450 187C449.226 188.285 448.217 189.601 447 191Z" fill="#395286"/>
<path d="M445 195C445.523 193.726 446.18 192.371 447 191C446.486 192.296 445.811 193.608 445 195Z" fill="#395286"/>
<path d="M430 217C430.508 215.735 431.169 214.38 432 213C431.498 214.287 430.825 215.598 430 217Z" fill="#395286"/>
<path d="M396 261C396.515 260.045 397.174 259.03 398 258C397.493 258.97 396.818 259.955 396 261Z" fill="#395286"/>
<path d="M427 221C427.522 219.732 428.181 218.377 429 217C428.485 218.289 427.811 219.601 427 221Z" fill="#395286"/>
<path d="M407 57C407.666 57.8043 408.348 58.7969 409 60C408.319 59.2031 407.667 58.1957 407 57Z" fill="#395286"/>
<path d="M374 287C374.506 286.037 375.169 285.028 376 284C375.498 284.972 374.827 285.963 374 287Z" fill="#395286"/>
<path d="M451 185C451.236 184.063 451.565 183.046 452 182C451.769 182.954 451.43 183.937 451 185Z" fill="#395286"/>
<path d="M399 257C399.452 256.382 400.104 255.698 401 255C400.563 255.635 399.881 256.284 399 257Z" fill="#395286"/>
<path d="M405 54C405.659 54.5202 406.319 55.1814 407 56C406.348 55.4853 405.674 54.8131 405 54Z" fill="#395286"/>
<path d="M466 39C465.687 38.8256 465.347 38.5007 465 38C465.319 38.166 465.647 38.5077 466 39Z" fill="#395286"/>
<path d="M418 85C418.466 85.1528 418.732 85.4847 419 86C418.602 85.8486 418.201 85.5139 418 85Z" fill="#395286"/>
</svg>
